PathFileType	4	(X/Y/Z)	Walk7.trc
DataRate	CameraRate	NumFrames	NumMarkers	Units	OrigDataRate	OrigDataStartFrame	OrigNumFrames
200.000000	200.000000	7	59	mm	200.000000	346	495
Frame#	Times		LFHD		RFHD		C7		CLAV		RBack		RASI		RACR1		RUA1		RElbowM		RFA1		RWRR		RWRU		LACR1		LUA1		LFA1		LWRR		LWRU		RTH1		RTH3		LTH2		LTH4		LASI		LTH3		RTB1		RTB3		RCAR		LTB2		LCAR		T10		RPSI		LLFC		LBHD		LToe		RBHD		STRN		RElbow		RTB4		RTH2		LTB1		RTB2		LTB4		LElbow		LPSI		LElbowM		LTH1		LMMAL		LMT1		RTH4		LTB3		LCAL		LMT5		RLFC		LLMAL		RMT1		RToe		RCAL		RMMAL		RLMAL		RMT5
			X1	Y1	Z1	X2	Y2	Z2	X3	Y3	Z3	X4	Y4	Z4	X5	Y5	Z5	X6	Y6	Z6	X7	Y7	Z7	X8	Y8	Z8	X9	Y9	Z9	X10	Y10	Z10	X11	Y11	Z11	X12	Y12	Z12	X13	Y13	Z13	X14	Y14	Z14	X15	Y15	Z15	X16	Y16	Z16	X17	Y17	Z17	X18	Y18	Z18	X19	Y19	Z19	X20	Y20	Z20	X21	Y21	Z21	X22	Y22	Z22	X23	Y23	Z23	X24	Y24	Z24	X25	Y25	Z25	X26	Y26	Z26	X27	Y27	Z27	X28	Y28	Z28	X29	Y29	Z29	X30	Y30	Z30	X31	Y31	Z31	X32	Y32	Z32	X33	Y33	Z33	X34	Y34	Z34	X35	Y35	Z35	X36	Y36	Z36	X37	Y37	Z37	X38	Y38	Z38	X39	Y39	Z39	X40	Y40	Z40	X41	Y41	Z41	X42	Y42	Z42	X43	Y43	Z43	X44	Y44	Z44	X45	Y45	Z45	X46	Y46	Z46	X47	Y47	Z47	X48	Y48	Z48	X49	Y49	Z49	X50	Y50	Z50	X51	Y51	Z51	X52	Y52	Z52	X53	Y53	Z53	X54	Y54	Z54	X55	Y55	Z55	X56	Y56	Z56	X57	Y57	Z57	X58	Y58	Z58	X59	Y59	Z59

346	1.73	41.428	1420.9	-25.947	35.935	1408.2	69.631	-135.38	1260	10.838	4.2379	1173.1	3.0084	-182.3	1133.2	125.1	-2.6231	818.54	155.59	-64.575	1195.3	186.07	-62.181	1050.1	260.37	-124.38	893.63	216.89	-18.073	807.42	298.3	-1.8553	706.91	264.87	-39.005	709.09	327.24	-80.119	1207.7	-180.63	-61.333	1052.6	-262.42	11.665	868.97	-319.12	86.539	785.91	-294.06	50.951	767.77	-342.74	-54.399	630.19	211.11	-17.063	467.5	161.88	-73.831	555.06	-175.02	-128.86	551.59	-195.17	-39.645	802.41	-166.84	-137.9	468.53	-168.93	63.236	303.08	76.69	83.535	133.6	60.983	8.1942	654.02	319.68	-236.08	211.93	-116.4	108.94	747.15	-341.91	-224.02	1061.7	16.439	-262.72	841.59	76.6	-129.35	366.69	-136.82	-90.377	1350.8	-52.27	-206.52	25.742	-45.841	-96.337	1341.9	80.237	54.524	1065.8	-1.1872	-75.268	924.36	289.14	70.163	216.36	68.831	16.893	566.22	168.81	-159.15	267.6	-67.339	40.194	209.05	121.86	-217.29	202.65	-57.939	-81.092	935.15	-292.95	-281.68	848.77	-28.79	-104.6	900.66	-228.62	-120.6	636.94	-212	-324.8	107.84	-0.66903	-255.45	32.223	-17.611	-37.213	547.58	188.79	-268.25	137.19	-50.657	-396.36	112.24	-32.304	-302.28	30.779	-99.364	-6.0793	389.84	132.96	-354.27	102.56	-78.628	161.59	44.915	22.708	213.64	55.537	53.803	-1.9868	27.568	56.171	57.371	71.565	16.163	53.045	60.888	99.275	145.79	28.279	112.24
347	1.735	47.231	1420.9	-25.384	41.834	1408.2	70.203	-129.29	1259.9	11.786	10.188	1172.9	3.6999	-175.92	1133.2	126.26	4.0158	817.68	155.68	-58.04	1195.1	186.93	-55.717	1049.8	261.1	-117.92	893.32	217.5	-11.509	806.93	298.53	4.5485	706.45	264.96	-32.417	708.59	327.44	-74.535	1207.4	-179.86	-56.266	1052.1	-261.55	16.638	868.45	-318.28	91.396	785.25	-293.61	55.606	767.15	-342.14	-48.648	630.36	211.1	-10.894	468.01	161.08	-65.839	555.37	-175.09	-120.78	551.4	-195.36	-33.947	802.58	-166.23	-129.03	468.15	-169.59	67.253	302.36	76.369	85.392	132.7	60.418	14.749	653.58	319.72	-229.61	213.67	-117.38	113.54	746.54	-341.61	-218.08	1061.8	17.637	-256.52	841.5	77.586	-119.97	366.19	-137.95	-84.502	1350.6	-51.575	-206.85	25.674	-45.704	-90.343	1341.8	80.939	60.52	1065.6	-0.53054	-68.659	923.94	289.71	73.108	215.6	68.415	22.642	566.83	168.33	-151.21	267.43	-68.576	43.397	208.61	121.63	-210.79	203.83	-59.016	-75.995	934.75	-291.91	-275.97	847.98	-27.819	-99.231	900.28	-227.44	-113.33	636.89	-211.84	-320.32	111.58	-1.5362	-254.8	32.546	-17.709	-31.225	547.94	188.35	-263.2	139.57	-51.658	-391.5	118.32	-33.068	-301	32.754	-99.44	-0.90133	389.91	133.12	-350.11	106.98	-79.332	162.11	42.161	21.72	214.94	51.677	52.317	-1.7635	28.229	56.22	58.136	70.931	15.772	54.042	60.717	99.033	146.28	26.698	112.01
348	1.74	53.056	1420.9	-24.813	47.749	1408.3	70.78	-123.18	1259.9	12.716	16.14	1172.8	4.3857	-169.53	1133.3	127.42	10.613	817.04	155.81	-51.481	1194.9	187.77	-49.212	1049.5	261.82	-111.44	893.11	218.13	-4.9259	806.52	298.73	10.967	706.08	265.02	-25.806	708.17	327.62	-68.91	1207.3	-179.1	-51.205	1051.6	-260.66	21.507	867.92	-317.42	96.109	784.54	-293.15	60.086	766.5	-341.51	-42.768	630.69	211.04	-4.3821	468.7	160.34	-57.655	555.76	-175.12	-112.47	551.25	-195.58	-28.261	802.82	-165.57	-119.86	467.82	-170.27	71.19	301.69	76.134	87.08	131.84	59.939	21.325	653.22	319.73	-222.73	215.55	-118.37	117.94	745.86	-341.31	-212.16	1061.9	18.797	-250.39	841.5	78.483	-110.24	365.79	-139.09	-78.606	1350.4	-50.888	-207.1	25.612	-45.596	-84.337	1341.7	81.632	66.507	1065.5	0.16137	-62.022	923.62	290.28	75.922	214.89	68.085	28.566	567.68	167.78	-142.9	267.35	-69.847	46.483	208.23	121.5	-203.87	205.14	-60.129	-70.953	934.4	-290.82	-270.3	847.21	-26.919	-93.899	899.99	-226.19	-105.92	636.88	-211.69	-315.37	115.47	-2.4427	-253.98	32.961	-17.816	-25.012	548.47	187.89	-257.73	142.09	-52.692	-386.1	124.6	-33.846	-299.44	34.964	-99.529	4.2878	390.07	133.35	-345.49	111.6	-80.051	162.45	39.677	20.867	215.99	48.188	50.984	-1.6698	28.838	56.291	58.732	70.381	15.444	54.848	60.57	98.845	146.58	25.355	111.89
349	1.745	58.906	1421	-24.235	53.678	1408.4	71.362	-117.06	1260	13.621	22.09	1172.8	5.0611	-163.15	1133.5	128.54	17.163	816.64	156	-44.909	1194.8	188.59	-42.666	1049.4	262.53	-104.97	893	218.75	1.6759	806.22	298.93	17.402	705.8	265.06	-19.17	707.84	327.77	-63.243	1207.2	-178.35	-46.141	1051.3	-259.76	26.274	867.4	-316.55	100.68	783.79	-292.69	64.394	765.82	-340.86	-36.761	631.17	210.95	2.4252	469.55	159.7	-49.298	556.25	-175.1	-103.96	551.16	-195.82	-22.589	803.13	-164.86	-110.44	467.55	-170.97	75.044	301.06	75.991	88.619	131.05	59.548	27.921	652.94	319.71	-215.46	217.56	-119.39	122.16	745.12	-341.01	-206.27	1062.1	19.91	-244.32	841.59	79.279	-100.21	365.49	-140.23	-72.689	1350.4	-50.212	-207.23	25.561	-45.533	-78.322	1341.7	82.314	72.481	1065.5	0.8856	-55.36	923.38	290.83	78.612	214.23	67.845	34.657	568.76	167.17	-134.24	267.38	-71.144	49.452	207.91	121.46	-196.55	206.56	-61.267	-65.962	934.1	-289.69	-264.65	846.45	-26.101	-88.602	899.77	-224.88	-98.363	636.91	-211.54	-309.94	119.46	-3.3774	-252.95	33.489	-17.936	-18.6	549.16	187.47	-251.82	144.74	-53.748	-380.16	131.04	-34.625	-297.55	37.406	-99.633	9.4852	390.31	133.62	-340.38	116.38	-80.775	162.65	37.487	20.141	216.83	45.096	49.798	-1.6696	29.386	56.38	59.184	69.914	15.181	55.492	60.444	98.71	146.73	24.247	111.86
350	1.75	64.78	1421.2	-23.65	59.622	1408.5	71.948	-110.93	1260.2	14.496	28.034	1172.8	5.7208	-156.78	1133.8	129.63	23.663	816.49	156.25	-38.333	1194.8	189.37	-36.084	1049.3	263.22	-98.504	892.99	219.37	8.2951	806.01	299.11	23.855	705.62	265.08	-12.51	707.61	327.91	-57.536	1207.2	-177.62	-41.065	1051	-258.85	30.941	866.89	-315.65	105.11	782.99	-292.21	68.532	765.12	-340.19	-30.632	631.77	210.85	9.4668	470.53	159.21	-40.788	556.82	-175.01	-95.258	551.14	-196.07	-16.932	803.5	-164.12	-100.77	467.34	-171.68	78.809	300.47	75.943	90.027	130.3	59.243	34.536	652.74	319.65	-207.8	219.7	-120.4	126.18	744.32	-340.7	-200.4	1062.4	20.969	-238.32	841.78	79.964	-89.884	365.31	-141.35	-66.753	1350.4	-49.55	-207.18	25.524	-45.529	-72.301	1341.7	82.981	78.437	1065.5	1.6389	-48.679	923.25	291.37	81.185	213.62	67.693	40.898	570	166.56	-125.24	267.51	-72.452	52.3	207.62	121.51	-188.84	208.08	-62.421	-61.022	933.86	-288.52	-259.03	845.71	-25.375	-83.343	899.64	-223.52	-90.688	637	-211.4	-304.04	123.53	-4.3276	-251.65	34.149	-18.076	-12.022	549.99	187.1	-245.48	147.5	-54.817	-373.67	137.58	-35.392	-295.3	40.075	-99.753	14.679	390.61	133.93	-334.79	121.28	-81.496	162.74	35.6	19.533	217.49	42.407	48.75	-1.7337	29.869	56.488	59.517	69.53	14.979	56.003	60.335	98.623	146.78	23.36	111.9
351	1.755	70.68	1421.3	-23.059	65.578	1408.7	72.539	-104.81	1260.4	15.335	33.967	1172.9	6.3596	-150.43	1134.1	130.67	30.106	816.6	156.56	-31.763	1194.9	190.12	-29.467	1049.4	263.89	-92.042	893.09	219.98	14.931	805.9	299.28	30.326	705.55	265.07	-5.8237	707.48	328.03	-51.793	1207.3	-176.92	-35.97	1050.8	-257.93	35.512	866.38	-314.74	109.4	782.16	-291.72	72.505	764.39	-339.49	-24.39	632.51	210.75	16.668	471.6	158.88	-32.149	557.5	-174.87	-86.398	551.19	-196.34	-11.29	803.94	-163.36	-90.885	467.22	-172.39	82.477	299.9	75.99	91.319	129.61	59.02	41.172	652.64	319.55	-199.78	221.94	-121.41	130.03	743.45	-340.37	-194.56	1062.7	21.969	-232.39	842.06	80.534	-79.314	365.24	-142.44	-60.801	1350.5	-48.906	-206.86	25.509	-45.603	-66.278	1341.8	83.63	84.371	1065.6	2.4174	-41.985	923.21	291.9	83.645	213.05	67.629	47.264	571.37	165.95	-115.94	267.75	-73.756	55.026	207.36	121.63	-180.76	209.69	-63.576	-56.127	933.68	-287.33	-253.43	845	-24.748	-78.12	899.58	-222.11	-82.906	637.15	-211.27	-297.66	127.64	-5.2777	-250.01	34.961	-18.244	-5.3171	550.93	186.81	-238.72	150.36	-55.886	-366.67	144.15	-36.137	-292.65	42.958	-99.891	19.848	390.93	134.28	-328.72	126.26	-82.205	162.74	34.008	19.029	218	40.11	47.832	-1.8391	30.289	56.611	59.754	69.226	14.837	56.407	60.239	98.581	146.75	22.674	111.98
352	1.76	76.606	1421.5	-22.463	71.546	1408.9	73.131	-98.698	1260.7	16.135	39.885	1173	6.9723	-144.1	1134.6	131.67	36.488	816.97	156.93	-25.212	1195	190.82	-22.82	1049.5	264.53	-85.588	893.28	220.59	21.582	805.9	299.44	36.819	705.58	265.05	0.8918	707.45	328.14	-46.022	1207.5	-176.25	-30.848	1050.6	-257.02	39.991	865.88	-313.83	113.56	781.29	-291.22	76.319	763.64	-338.77	-18.049	633.35	210.67	23.946	472.73	158.74	-23.405	558.27	-174.66	-77.401	551.34	-196.6	-5.6661	804.43	-162.6	-80.825	467.19	-173.09	86.04	299.35	76.129	92.508	128.97	58.871	47.828	652.62	319.43	-191.41	224.27	-122.4	133.7	742.53	-340.02	-188.74	1063.1	22.903	-226.53	842.42	80.982	-68.536	365.31	-143.49	-54.836	1350.6	-48.281	-206.19	25.521	-45.772	-60.258	1342	84.258	90.279	1065.7	3.2162	-35.281	923.28	292.41	85.997	212.51	67.646	53.723	572.81	165.38	-106.37	268.11	-75.039	57.626	207.13	121.82	-172.33	211.39	-64.715	-51.276	933.55	-286.11	-247.84	844.34	-24.226	-72.932	899.62	-220.67	-75.037	637.37	-211.12	-290.83	131.76	-6.2098	-247.98	35.942	-18.447	1.466	551.96	186.61	-231.55	153.27	-56.942	-359.18	150.7	-36.847	-289.55	46.04	-100.05	24.962	391.27	134.66	-322.18	131.29	-82.892	162.68	32.695	18.619	218.41	38.182	47.033	-1.9677	30.646	56.749	59.914	68.993	14.749	56.726	60.153	98.579	146.67	22.165	112.09
